<?xml version="1.0"?><svg version="1.1" id="圖層_1" xmlns="http://www.w3.org/2000/svg" x="0" y="0" viewBox="0 0 100 100" xml:space="preserve"><path d="M70.5 63.7H45c-1.3 0-2.4 1.1-2.4 2.4 0 1.3 1.1 2.4 2.4 2.4h25.6c1.3 0 2.4-1.1 2.4-2.4-.1-1.3-1.1-2.4-2.5-2.4z" fill="#e0e0e0"/><path d="M43.3 48l-12-15.6c-.8-1-2.3-1.2-3.3-.4-1 .8-1.2 2.3-.4 3.3l10.8 14.1-10.8 13.8c-.8 1-.6 2.5.4 3.3.4.3.9.5 1.5.5.7 0 1.4-.3 1.9-.9l12-15.2c.5-.8.5-2-.1-2.9z" fill="#e0e0e0"/><path d="M81.2 18.3H18.8c-4.8 0-8.8 3.9-8.8 8.8v45.8c0 4.8 3.9 8.8 8.8 8.8h62.5c4.8 0 8.8-3.9 8.8-8.8V27.1c-.1-4.8-4-8.8-8.9-8.8zM29.5 67.1c-.5 0-1-.2-1.5-.5-1-.8-1.2-2.3-.4-3.3l10.8-13.8-10.8-14.2c-.8-1-.6-2.5.4-3.3 1-.8 2.5-.6 3.3.4l12 15.6c.7.9.7 2.1 0 2.9l-12 15.2c-.4.7-1.1 1-1.8 1zm41 1.4H45c-1.3 0-2.4-1.1-2.4-2.4 0-1.3 1.1-2.4 2.4-2.4h25.6c1.3 0 2.4 1.1 2.4 2.4-.1 1.3-1.1 2.4-2.5 2.4z" fill="#333"/><metadata xmlns:d="https://loading.io/stock/">
<d:name>prompt</d:name>
<d:tags>terminal,command line,editor,hacker,developerconsole,prompt,web application</d:tags>
<d:license>by</d:license>
<d:slug>706ohd</d:slug>
</metadata></svg>