<svg width="81" height="64" viewBox="0 0 81 64" fill="none" xmlns="http://www.w3.org/2000/svg">
<path d="M60.5001 45.7H35.0001C33.7001 45.7 32.6001 46.8 32.6001 48.1C32.6001 49.4 33.7001 50.5 35.0001 50.5H60.6001C61.9001 50.5 63.0001 49.4 63.0001 48.1C62.9001 46.8 61.9001 45.7 60.5001 45.7V45.7Z" fill="#E0E0E0"/>
<path d="M33.3001 30L21.3001 14.4C20.5001 13.4 19.0001 13.2 18.0001 14C17.0001 14.8 16.8001 16.3 17.6001 17.3L28.4001 31.4L17.6001 45.2C16.8001 46.2 17.0001 47.7 18.0001 48.5C18.4001 48.8 18.9001 49 19.5001 49C20.2001 49 20.9001 48.7 21.4001 48.1L33.4001 32.9C33.9001 32.1 33.9001 30.9 33.3001 30V30Z" fill="#E0E0E0"/>
<path d="M71.2 0.299988H8.8C4 0.299988 0 4.19999 0 9.09999V54.9C0 59.7 3.9 63.7 8.8 63.7H71.3C76.1 63.7 80.1 59.8 80.1 54.9V9.09999C80 4.29999 76.1 0.299988 71.2 0.299988V0.299988ZM19.5 49.1C19 49.1 18.5 48.9 18 48.6C17 47.8 16.8 46.3 17.6 45.3L28.4 31.5L17.6 17.3C16.8 16.3 17 14.8 18 14C19 13.2 20.5 13.4 21.3 14.4L33.3 30C34 30.9 34 32.1 33.3 32.9L21.3 48.1C20.9 48.8 20.2 49.1 19.5 49.1V49.1ZM60.5 50.5H35C33.7 50.5 32.6 49.4 32.6 48.1C32.6 46.8 33.7 45.7 35 45.7H60.6C61.9 45.7 63 46.8 63 48.1C62.9 49.4 61.9 50.5 60.5 50.5Z" fill="#333333"/>
</svg>
